<svg width="34" height="31" viewBox="0 0 34 31" fill="none" xmlns="http://www.w3.org/2000/svg">
<path d="M21.0508 0H2.98828C1.3347 0 0 1.34999 0 3.02251V15.1126C0 16.785 1.3347 18.1351 2.98828 18.1351H3.98438V21.1576C3.98438 21.8855 4.72952 22.4126 5.45859 22.0442C5.47852 22.024 5.51843 22.024 5.53835 22.0038C11.0179 18.2871 9.78988 19.1159 11.0169 18.2962C11.1762 18.1955 11.3555 18.1351 11.5547 18.1351H21.0508C22.7044 18.1351 24.0391 16.785 24.0391 15.1126V3.02251C24.0391 1.34999 22.7044 0 21.0508 0ZM13.082 12.0901H4.98047C3.66742 12.0901 3.66204 10.075 4.98047 10.075H13.082C14.3951 10.075 14.4005 12.0901 13.082 12.0901ZM19.0586 8.06004H4.98047C3.66742 8.06004 3.66204 6.04503 4.98047 6.04503H19.0586C20.3716 6.04503 20.377 8.06004 19.0586 8.06004Z" fill="white"/>
<path d="M31.0117 8.06006H26.0312V15.1126C26.0312 17.8933 23.8 20.1501 21.0508 20.1501H11.8535L9.96094 21.4196V23.1726C9.96094 24.845 11.2956 26.1951 12.9492 26.1951H22.7441L28.4617 30.0639C29.2421 30.5022 30.0156 29.9692 30.0156 29.2177V26.1951H31.0117C32.6653 26.1951 34 24.845 34 23.1726V11.0826C34 9.41011 32.6653 8.06006 31.0117 8.06006Z" fill="white"/>
</svg>
